<?xml version="1.0" encoding="utf-8"?>
<!-- Generator: Adobe Illustrator 18.1.0, SVG Export Plug-In . SVG Version: 6.00 Build 0)  -->
<svg version="1.1" id="Calque_1" xmlns="http://www.w3.org/2000/svg" xmlns:xlink="http://www.w3.org/1999/xlink" x="0px" y="0px"
	 viewBox="0 0 120 120" enable-background="new 0 0 120 120" xml:space="preserve">
<g>
	<g>
		<path fill="#FFFFFF" d="M82.9,2.5c8.4,0,16.7,0,25.1,0c0,38.9,0,77.9,0,116.8c-31.5,0-62.9,0-94.4,0c0-38.9,0-77.9,0-116.8
			c22.6,0,45.2,0,67.7,0c-0.2,0.5-0.4,1-0.6,1.4c-4.6,9.2-9.3,18.4-13.7,27.7c-4.2,9-8.1,18.2-12.1,27.3c-0.4,0.9-1.1,1.6-2.1,3.1
			c-0.2-1.5-0.4-2.2-0.3-2.9c0.3-5,0.5-9.9,0.9-14.9c0.3-3.8,1-7.6,1.3-11.4c0.1-0.8-0.8-1.7-1.3-2.5c-0.7,0.8-1.7,1.5-2,2.4
			c-0.4,1.3-0.2,2.8-0.2,4.2c-0.6,8.5-1.2,17-1.7,25.5c-0.1,1.7,0.2,3.9,2.2,4c1.2,0.1,2.7-1.3,3.8-2.3c0.8-0.7,1.3-1.9,1.8-3
			c1.7-3.6,3.5-7.2,5-10.9c6.5-15.1,12.6-30.4,21-44.5C84.1,4.4,83.9,3.5,82.9,2.5z M89.1,22.7c0.3,0,0.5,0.1,0.8,0.1
			c0.1,1,0.4,2,0.3,3c-0.4,7.6-0.7,15.3-1.5,22.9c-1.6,15.5-3.8,30.9-3.5,46.5c0,1.4-0.4,3.4,1.7,3.5c0.4,0,1.3-2.2,1.4-3.5
			c0.9-11.9,1.5-23.7,2.4-35.6c0.8-12.1,1.8-24.2,2.6-36.4c0.1-1.9-0.2-3.9-0.6-5.8c-0.2-0.8-1.1-1.9-1.8-1.9
			c-0.8-0.1-2.1,0.6-2.6,1.3c-0.8,1.2-1.4,2.7-1.8,4.1c-2.8,9.6-5.5,19.3-8.4,28.9c-4.4,14.6-9.8,28.8-19,41.1
			c-2.1,2.7-4.5,5.2-7.1,7.5c-2.2,1.9-4.2,1.3-5.3-1.4c-0.7-1.8-1.4-3.7-1.5-5.6c-0.4-10.8-0.7-21.6-1-32.5c0-1.6,0.6-3.8-1.6-4.2
			c-0.7-0.1-2.1,2.2-2.6,3.6C34.7,73,29.7,87.6,24.4,102.1c-2,5.5-4.5,10.7-6.9,16.2c2.1,1,3.2,0.4,4-1.5
			C27.2,102,33,87.3,38.7,72.6c0.4-1,0.8-2,1.2-3c0.2,0,0.5,0.1,0.7,0.1c0.1,0.9,0.3,1.8,0.3,2.7c0.1,4.5-0.1,9.1,0.4,13.6
			c0.5,4.3,1.2,8.6,2.7,12.7c1.4,4.1,5.3,5.1,8.9,2.7c2.3-1.5,4.5-3.5,6.3-5.7c6.9-8.2,12.2-17.6,15.7-27.7
			c4.5-13.1,8.3-26.4,12.4-39.6C87.8,26.5,88.5,24.6,89.1,22.7z"/>
		<path d="M82.9,2.5c1,0.9,1.2,1.8,0.4,3.2c-8.4,14.2-14.5,29.5-21,44.5c-1.6,3.7-3.3,7.3-5,10.9c-0.5,1-1,2.2-1.8,3
			c-1.1,1-2.6,2.4-3.8,2.3c-2-0.1-2.3-2.2-2.2-4c0.5-8.5,1.1-17,1.7-25.5c0.1-1.4-0.1-2.9,0.2-4.2c0.3-0.9,1.3-1.6,2-2.4
			c0.5,0.9,1.4,1.7,1.3,2.5c-0.3,3.8-0.9,7.6-1.3,11.4c-0.4,5-0.6,9.9-0.9,14.9c0,0.7,0.1,1.3,0.3,2.9c1-1.5,1.7-2.2,2.1-3.1
			c4.1-9.1,7.9-18.3,12.1-27.3c4.4-9.3,9.1-18.5,13.7-27.7c0.2-0.5,0.4-1,0.6-1.4C81.8,2.5,82.3,2.5,82.9,2.5z"/>
		<path d="M89.1,22.7c-0.6,1.9-1.3,3.8-1.9,5.6C83.1,41.6,79.3,54.9,74.8,68c-3.5,10.1-8.7,19.5-15.7,27.7c-1.8,2.1-3.9,4.2-6.3,5.7
			c-3.7,2.4-7.5,1.3-8.9-2.7c-1.4-4-2.2-8.4-2.7-12.7c-0.5-4.5-0.2-9.1-0.4-13.6c0-0.9-0.2-1.8-0.3-2.7c-0.2,0-0.5-0.1-0.7-0.1
			c-0.4,1-0.8,2-1.2,3C33,87.3,27.2,102,21.5,116.7c-0.8,2-1.9,2.6-4,1.5c2.3-5.4,4.9-10.7,6.9-16.2C29.7,87.6,34.7,73,39.9,58.4
			c0.5-1.4,1.9-3.7,2.6-3.6c2.2,0.3,1.5,2.6,1.6,4.2c0.3,10.8,0.5,21.6,1,32.5c0.1,1.9,0.8,3.8,1.5,5.6c1.1,2.7,3.1,3.3,5.3,1.4
			c2.6-2.2,5.1-4.7,7.1-7.5c9.2-12.3,14.6-26.5,19-41.1c2.9-9.6,5.6-19.3,8.4-28.9c0.4-1.4,1-2.9,1.8-4.1c0.5-0.7,1.7-1.4,2.6-1.3
			c0.7,0.1,1.6,1.1,1.8,1.9c0.4,1.9,0.7,3.9,0.6,5.8c-0.8,12.1-1.8,24.2-2.6,36.4c-0.8,11.9-1.5,23.7-2.4,35.6
			c-0.1,1.2-1,3.5-1.4,3.5c-2.1-0.1-1.7-2.1-1.7-3.5c-0.2-15.6,2-31,3.5-46.5c0.8-7.6,1-15.2,1.5-22.9c0.1-1-0.2-2-0.3-3
			C89.7,22.8,89.4,22.8,89.1,22.7z"/>
	</g>
</g>
<path display="none" d="M50.8,33.3c0,0,0-5.8,2.8-2.3c0,0-3.3,26.7-1.4,30.7S71,17.2,80.5,2c0,0,4,0.5,2.7,2.7
	C81.8,6.8,70.8,25.9,69,32S57.7,64.8,50.8,66.5S50.8,33.3,50.8,33.3z"/>
</svg>
